<svg width="34" height="112" viewBox="0 0 34 112" fill="none" xmlns="http://www.w3.org/2000/svg">
<path d="M6.14097 71.4267L1.04846 0H32.9515L27.859 71.4267H6.14097ZM17 112C13.6549 112 10.6843 111.362 8.08811 110.085C5.54185 108.76 3.54479 106.919 2.09692 104.563C0.698972 102.157 0 99.4328 0 96.3892C0 93.3456 0.698972 90.6456 2.09692 88.2893C3.54479 85.9329 5.54185 84.1166 8.08811 82.8402C10.6843 81.5148 13.6549 80.8521 17 80.8521C20.3451 80.8521 23.2908 81.5148 25.837 82.8402C28.4332 84.1166 30.4303 85.9329 31.8282 88.2893C33.2761 90.6456 34 93.3456 34 96.3892C34 99.4328 33.2761 102.157 31.8282 104.563C30.4303 106.919 28.4332 108.76 25.837 110.085C23.2908 111.362 20.3451 112 17 112Z" fill="white"/>
</svg>
