<svg width="24" height="80" viewBox="0 0 24 80" fill="none" xmlns="http://www.w3.org/2000/svg">
<path d="M4.3348 50.8797L0.740089 0.389404H23.2599L19.6652 50.8797H4.3348ZM12 79.5602C9.63877 79.5602 7.54185 79.1091 5.70925 78.2069C3.9119 77.2699 2.5022 75.9686 1.48018 74.303C0.493392 72.6026 0 70.6767 0 68.5252C0 66.3737 0.493392 64.4652 1.48018 62.7995C2.5022 61.1339 3.9119 59.8499 5.70925 58.9477C7.54185 58.0108 9.63877 57.5423 12 57.5423C14.3612 57.5423 16.4405 58.0108 18.2379 58.9477C20.0705 59.8499 21.4802 61.1339 22.467 62.7995C23.489 64.4652 24 66.3737 24 68.5252C24 70.6767 23.489 72.6026 22.467 74.303C21.4802 75.9686 20.0705 77.2699 18.2379 78.2069C16.4405 79.1091 14.3612 79.5602 12 79.5602Z" fill="#01B2E0"/>
</svg>
