<svg width="1440" height="6359" viewBox="0 0 1440 6359" fill="none" xmlns="http://www.w3.org/2000/svg">
<g clip-path="url(#clip0_105653_1703)">
<rect width="1440" height="6359" fill="white"/>
<path d="M170.802 757.596C475.802 1054.1 598.61 1009.21 818.673 921.138C1139.56 792.71 1234.52 1029.83 1193.49 1189.59C1133.96 1421.33 832.474 1631.32 775.41 1429.19C718.346 1227.06 1003.29 1237.38 1142.13 1386.1C1263.34 1515.93 1371.3 1604.33 1371.3 1782.59C1371.3 1960.86 1108.13 1991.09 1124.8 2161.59C1141.47 2332.1 1336.3 2394.1 1521.3 2451.1" stroke="#701487" stroke-width="35"/>
<path d="M1176.49 4518.55C907.51 4848.07 780.364 4817.57 551.653 4755.31C218.152 4664.53 151.011 4910.98 210.097 5064.98C295.809 5288.36 619.391 5462.39 652.897 5255.05C686.403 5047.71 374.199 5091.39 253.331 5255.05C147.811 5397.93 75.1694 5473.16 95.6135 5650.25C116.058 5827.33 386.814 5851.41 389.807 6022.69C392.799 6193.98 108.242 6257.66 -69.0002 6335.5" stroke="#701487" stroke-width="35"/>
<path d="M-104.699 1412.1C-65.722 1471.27 74.801 1570.6 158.301 1520.1C241.088 1470.03 156.156 1330.27 258.801 1261.6C371.301 1186.33 537.377 1327.63 578.801 1198.1C629.085 1040.86 408.407 954.22 578.801 812.595C706.869 706.151 818.976 613.75 642.609 522.28" stroke="#01B2E0" stroke-width="35"/>
<path d="M1087.41 6186.36C1016.6 6183.95 858.572 6115.83 858.128 6018.25C857.688 5921.5 1021.23 5921.11 1026.31 5797.71C1031.88 5662.47 733.539 5547.98 828.851 5387.09C924.163 5226.21 1210.59 5509.79 1242.6 5290.54C1266.66 5125.76 1287.05 4981.92 1457.06 5084.73" stroke="#01B2E0" stroke-width="35"/>
<path d="M1546.75 3077.62C1497.94 3026.26 1342.09 2953.3 1268.82 3017.75C1196.17 3081.65 1304.45 3204.22 1215.54 3289.94C1118.1 3383.88 929.683 3274.13 911.782 3408.95C890.054 3572.59 1149.28 3645.61 979.854 3788.39C653.991 4063 1271.74 4153.61 1461.49 4212.5" stroke="#FD7D32" stroke-width="35"/>
</g>
<defs>
<clipPath id="clip0_105653_1703">
<rect width="1440" height="6359" fill="white"/>
</clipPath>
</defs>
</svg>
