<svg width="1440" height="5768" viewBox="0 0 1440 5768" fill="none" xmlns="http://www.w3.org/2000/svg">
<g clip-path="url(#clip0_105835_328)">
<rect width="1440" height="5768" fill="white"/>
<path d="M-139.5 619C412 1043 598.61 1009.21 818.673 921.138C1139.56 792.71 1234.52 1029.83 1193.49 1189.59C1133.96 1421.33 832.474 1631.32 775.41 1429.19C718.346 1227.06 1003.29 1237.38 1142.13 1386.1C1263.34 1515.93 1371.3 1604.33 1371.3 1782.59C1371.3 1960.86 1108.13 1991.09 1124.8 2161.59C1141.47 2332.1 1336.3 2394.1 1521.3 2451.1" stroke="#701487" stroke-width="35"/>
<path d="M1484.5 4223C1149.5 4755.31 780.364 4817.57 551.653 4755.31C218.152 4664.53 151.011 4910.98 210.097 5064.97C295.809 5288.36 619.391 5462.39 652.897 5255.05C686.403 5047.71 374.199 5091.39 253.331 5255.05C147.811 5397.93 75.1694 5473.16 95.6135 5650.25C116.058 5827.33 386.814 5851.4 389.807 6022.69C392.799 6193.98 108.242 6257.66 -69.0002 6335.5" stroke="#701487" stroke-width="35"/>
<path d="M1506 3858.5C1162.62 3607.44 820.625 3542.63 615 3660.54C315.162 3832.47 188.051 3610.91 206.401 3447C233.02 3209.22 502.267 2959.22 586.969 3151.42C671.67 3343.61 388.075 3373.14 229.846 3245.25C91.71 3133.59 -27.5279 3061.11 -52.3944 2884.59C-77.261 2708.07 179.12 2641.42 138.827 2474.91C98.5345 2308.4 -103.038 2274.19 -294.18 2243.55" stroke="#ABC704" stroke-width="35"/>
<path d="M-96.7326 1210.25C-57.7556 1269.42 82.7674 1368.75 166.268 1318.25C249.054 1268.18 164.123 1128.42 266.768 1059.75C379.268 984.487 545.344 1125.78 586.768 996.251C637.052 839.014 416.374 752.376 586.768 610.751C714.836 504.307 750.466 171.156 -96.7322 149.656" stroke="#01B2E0" stroke-width="35"/>
<path d="M1087.41 6186.36C1016.6 6183.95 858.572 6115.83 858.128 6018.25C857.688 5921.5 1021.23 5921.1 1026.31 5797.71C1031.88 5662.47 733.539 5547.98 828.851 5387.09C924.163 5226.21 1210.59 5509.78 1242.6 5290.54C1266.66 5125.76 1287.05 4981.92 1457.06 5084.72" stroke="#01B2E0" stroke-width="35"/>
<path d="M1546.75 3077.62C1497.94 3026.26 1342.09 2953.3 1268.82 3017.75C1196.17 3081.65 1304.45 3204.22 1215.54 3289.94C1118.1 3383.88 929.683 3274.13 911.782 3408.94C890.054 3572.59 1149.28 3645.61 979.854 3788.39C653.991 4063 1271.74 4153.61 1461.49 4212.5" stroke="#FD7D32" stroke-width="35"/>
</g>
<defs>
<clipPath id="clip0_105835_328">
<rect width="1440" height="5768" fill="white"/>
</clipPath>
</defs>
</svg>
