<svg width="320" height="8189" viewBox="0 0 320 8189" fill="none" xmlns="http://www.w3.org/2000/svg">
<g clip-path="url(#clip0_105724_551)">
<rect width="320" height="8189" fill="white"/>
<path d="M397.051 1667.06C327.633 1416.55 226.755 1335.74 83.4937 1314.31C-125.407 1283.05 -102.344 1128.67 -31.4094 1057.05C71.49 953.17 295.321 935.409 263.062 1059.64C230.804 1183.87 83.6704 1090.52 56.3118 969.235C32.4273 863.347 2.74892 783.404 57.7469 689.366C112.745 595.328 260.904 660.572 304.712 565.484C348.521 470.397 55.0063 339.146 -25 252" stroke="#01B2E0" stroke-width="16"/>
<path d="M475.696 1261.92C413.231 1228.48 242.355 1208.12 193.013 1292.31C144.094 1375.78 285.366 1458.18 227.853 1567.46C164.818 1687.25 -50.1947 1658.4 -24.8815 1792.02C5.84605 1954.22 242.814 1908.99 160.507 2114.7C98.6457 2269.31 181.477 2407.14 380.12 2403.5" stroke="#701487" stroke-width="16"/>
<path d="M411.051 3622.06C341.633 3371.55 240.755 3290.74 97.4939 3269.31C-111.407 3238.05 -88.3442 3083.67 -17.4092 3012.05C85.4902 2908.17 309.321 2890.41 277.062 3014.64C244.804 3138.88 97.6706 3045.52 70.312 2924.23C46.4275 2818.35 16.7491 2738.4 71.7471 2644.37C126.745 2550.33 274.904 2615.57 318.712 2520.48C362.521 2425.4 62.5969 2222.15 -17.4093 2135" stroke="#FD7D32" stroke-width="16"/>
<path d="M-21.9996 5297.5C34.0206 5551.34 189.86 5681.35 331.782 5710.35C538.728 5752.65 507.502 5905.6 432.864 5973.34C324.595 6071.62 100.137 6077.47 138.946 5955.13C177.754 5832.78 319.724 5933.81 340.604 6056.38C358.833 6163.39 384.226 6244.79 324.312 6335.78C264.399 6426.77 119.913 6353.75 71.1183 6446.37C22.3232 6539 256.515 6696.73 331.781 6788" stroke="#FD7D32" stroke-width="16"/>
<path d="M336 6739.5C69.5 6906.5 119.328 7017 246.099 7087.09C430.953 7189.29 355.455 7325.92 263.986 7368.27C131.298 7429.71 -84.6544 7368.23 -11.0629 7263.07C62.5285 7157.91 167.826 7296.74 151.129 7419.95C136.553 7527.51 136.462 7612.79 52.1005 7681.72C-32.2612 7750.64 -148.33 7637.79 -222.572 7711.61C-296.814 7785.42 -250.822 7901.6 -206.265 8011.19" stroke="#01B2E0" stroke-width="16"/>
<path d="M529.696 3302.92C467.231 3269.48 296.355 3249.12 247.013 3333.31C198.094 3416.78 339.366 3499.18 281.853 3608.46C218.818 3728.25 3.80531 3699.4 29.1185 3833.02C59.8461 3995.22 296.814 3949.99 214.507 4155.7C152.646 4310.31 235.477 4448.14 434.12 4444.5" stroke="#ABC704" stroke-width="16"/>
<path d="M-103.672 5564.7C-70.123 5595.21 32.758 5634.53 76.5297 5589.98C119.927 5545.81 45.1083 5472.61 97.8712 5413.76C155.7 5349.26 284.65 5400.73 289.803 5313.85C296.058 5208.38 141.915 5199.45 225.123 5084.62C287.663 4998.31 91.862 4850.26 -31.9998 4821.5" stroke="#01B2E0" stroke-width="16"/>
</g>
<defs>
<clipPath id="clip0_105724_551">
<rect width="320" height="8189" fill="white"/>
</clipPath>
</defs>
</svg>
