<svg width="90" height="90" viewBox="0 0 90 90" fill="none" xmlns="http://www.w3.org/2000/svg"><path d="M82.5 30.84v6.66h-75v-6.66c0-7.053 5.625-12.93 12.375-12.93h3v6.66c0 1.96 1.5 3.135 3 3.135s3-1.567 3-3.134V14.384c.375-1.567 1.875-3.134 3.75-3.134s3 1.567 3 3.134v3.135h15.75v6.66c0 1.96 1.5 3.134 3 3.134s3-1.567 3-3.134v-9.795c0-1.959 1.5-3.134 3-3.134 1.875 0 3.375 1.567 3.375 3.134v3.135h6.375c6.75.391 12.375 6.268 12.375 13.32ZM7.5 45h75v22.612c0 6.076-5.625 11.138-12.375 11.138h-50.25c-6.75 0-12.375-5.063-12.375-11.138V45Z" fill="#fff"/></svg>