<svg width="90" height="90" viewBox="0 0 90 90" fill="none" xmlns="http://www.w3.org/2000/svg">
<path fill-rule="evenodd" clip-rule="evenodd" d="M41.9998 4.12412C51.7498 2.99912 61.1248 6.37412 68.2498 12.7491C74.9998 18.7491 78.7498 27.3741 78.7498 36.3741C78.7498 43.1241 76.8748 49.4991 72.7498 55.1241L53.6248 81.7491C51.7498 84.7491 48.3748 86.2491 44.9998 86.2491C41.6248 86.2491 38.2498 84.7491 36.7498 82.1241L17.6248 55.4991C11.9998 47.9991 10.1248 38.9991 11.9998 29.9991C14.6248 16.1241 26.9998 5.24912 41.9998 4.12412ZM57.7504 36.375C57.7504 43.4166 52.042 49.125 45.0004 49.125C37.9587 49.125 32.2504 43.4166 32.2504 36.375C32.2504 29.3334 37.9587 23.625 45.0004 23.625C52.042 23.625 57.7504 29.3334 57.7504 36.375Z" fill="white"/>
</svg>
