<svg width="30" height="30" viewBox="0 0 30 30" fill="none" xmlns="http://www.w3.org/2000/svg">
<path d="M27.0376 1.50243C26.5444 1.13255 25.8046 1.13255 25.3113 1.74901L21.7355 6.18753C19.7626 4.83131 17.4199 4.09156 14.8305 4.09156C8.04871 4.09156 2.5 9.63971 2.5 16.4208C2.5 23.2019 8.04871 28.75 14.8305 28.75C21.6122 28.75 27.1609 23.2019 27.1609 16.4208C27.1609 13.9549 26.4211 11.7357 25.188 9.763L24.3249 10.7493L23.4618 11.7357L16.3101 20.736C16.0635 20.9826 15.6936 21.2292 15.3237 21.2292C14.9538 21.2292 14.7072 21.1059 14.4605 20.8593L9.15845 15.1879C8.78853 14.818 8.78853 14.2015 8.91184 13.8316C8.91184 13.7084 9.03514 13.5851 9.15845 13.4618C9.65167 12.9686 10.3915 12.9686 10.8847 13.4618L15.2004 18.1469L21.9821 9.63971L22.7219 8.65337L23.4618 7.66703L27.0376 3.22852C27.6541 2.73535 27.6541 1.99559 27.0376 1.50243Z" fill="#701487"/>
</svg>
