<svg width="30" height="30" viewBox="0 0 30 30" fill="none" xmlns="http://www.w3.org/2000/svg">
<path d="M24.5383 13.1419H23.9189V10.6644C23.9189 7.93919 21.6892 5.70946 18.964 5.70946H16.4865V5.21396C16.4865 2.98423 14.7523 1.25 12.5225 1.25C10.2928 1.25 8.55856 2.98423 8.55856 5.21396V5.83333H6.20495C3.47973 5.83333 1.25 8.06306 1.25 10.7883V14.5045C1.25 15.2477 1.7455 15.7432 2.48874 15.7432H4.34685C4.71847 15.7432 5.09009 15.8671 5.46171 16.2387C5.83333 16.6104 5.95721 16.982 5.95721 17.4775C5.95721 18.2207 5.21396 18.8401 4.34685 18.8401H2.48874C1.7455 18.8401 1.25 19.3356 1.25 20.0788V23.795C1.25 26.5203 3.47973 28.75 6.20495 28.75H9.92117C10.6644 28.75 11.1599 28.2545 11.1599 27.5113V25.6532C11.1599 25.2815 11.2838 24.9099 11.6554 24.5383C12.027 24.1667 12.3986 24.0428 12.8941 24.0428C13.6374 24.0428 14.2568 24.786 14.2568 25.6532V27.2635C14.2568 28.0068 14.7523 28.5023 15.4955 28.5023H19.2117C21.9369 28.5023 24.1667 26.2725 24.1667 23.5473V21.0698H24.786C27.0158 21.0698 28.75 19.3356 28.75 17.1059C28.5023 15 26.768 13.1419 24.5383 13.1419Z" fill="white"/>
</svg>
