<svg width="30" height="30" viewBox="0 0 30 30" fill="none" xmlns="http://www.w3.org/2000/svg">
<path d="M15 2.5C8.125 2.5 2.5 8.125 2.5 15C2.5 21.875 8.125 27.5 15 27.5C21.875 27.5 27.5 21.875 27.5 15C27.5 8.125 21.875 2.5 15 2.5ZM15 21.375C11.5 21.375 8.625 18.5 8.625 15C8.625 14.375 9.25 13.75 9.875 13.75C10.625 13.75 11.125 14.375 11.125 15C11.125 17.125 12.875 18.875 15 18.875C17.125 18.875 18.875 17.125 18.875 15C18.875 14.375 19.375 13.75 20.125 13.75C20.75 13.75 21.375 14.375 21.375 15C21.375 18.5 18.5 21.375 15 21.375Z" fill="white"/>
</svg>
