<svg width="415" height="250" viewBox="0 0 415 250" fill="none" xmlns="http://www.w3.org/2000/svg">
<path d="M379.283 57.6465H356.525L331.624 120.743H359.269V128.596H386.732L394.834 149.935H414.597L379.283 57.6465ZM355.339 108.816L367.288 76.9328L379.283 108.816H355.339Z" fill="white"/>
<path d="M351.342 128.551V157.75H331.595V149.92H249.679V57.6693L269.426 57.6465L269.517 128.535L304.193 128.551L304.102 57.6693H323.986V128.551H351.342Z" fill="white"/>
<path d="M323.933 157.651H249.679V177.409H276.966V249.924H296.744V177.409H323.933V175.143V157.651Z" fill="white"/>
<path d="M237.08 157.651H171.408H164.384H160.538L165.958 203.697L160.538 249.856H164.384H171.408V249.924H241.892V249.856V232.333V230.159H182.003L183.539 212.857H234.412V211.648V210.827V196.566V195.745V194.719H183.554L182.011 177.409H241.892V175.174V157.651H237.08Z" fill="white"/>
<path d="M390.054 194.377H389.294C383.397 194.48 377.592 195.847 372.267 198.383C374.816 193.064 376.195 187.26 376.311 181.362C376.478 172.718 373.871 162.6 370.618 159.316C370.262 158.874 369.811 158.516 369.299 158.271C368.786 158.026 368.225 157.898 367.657 157.898C367.089 157.898 366.529 158.026 366.016 158.271C365.504 158.516 365.053 158.874 364.697 159.316C361.444 162.631 358.814 172.734 358.958 181.362C359.068 187.258 360.434 193.064 362.964 198.391C357.648 195.842 351.847 194.463 345.953 194.346H345.193C335.699 194.346 322.466 197.63 322.458 203.013C322.45 208.395 335.691 211.709 345.177 211.717H345.937C351.831 211.613 357.633 210.25 362.956 207.718C360.413 213.039 359.037 218.843 358.92 224.739C358.753 233.383 361.36 243.501 364.613 246.785C364.969 247.228 365.42 247.585 365.933 247.83C366.445 248.075 367.006 248.203 367.574 248.203C368.142 248.203 368.703 248.075 369.215 247.83C369.727 247.585 370.178 247.228 370.534 246.785C373.788 243.471 376.418 233.367 376.273 224.739C376.164 218.842 374.796 213.036 372.26 207.711C377.579 210.258 383.382 211.637 389.278 211.755H390.039C399.532 211.755 412.773 208.471 412.781 203.089C412.788 197.706 399.547 194.384 390.054 194.377Z" fill="white"/>
<path d="M405.358 194.827C400.423 193.264 395.279 192.462 390.103 192.448H389.343C384.652 192.532 380.007 193.385 375.592 194.971C377.191 190.561 378.052 185.917 378.139 181.227C378.291 173.199 375.965 161.994 371.944 157.889C371.425 157.28 370.78 156.79 370.054 156.455C369.328 156.119 368.537 155.945 367.737 155.945C366.937 155.945 366.146 156.119 365.42 156.455C364.693 156.79 364.048 157.28 363.53 157.889C359.501 161.986 357.152 173.184 357.289 181.212C357.371 185.903 358.221 190.548 359.805 194.964C355.395 193.368 350.752 192.507 346.063 192.417H345.302C340.125 192.425 334.979 193.217 330.04 194.766C323.959 196.758 320.812 199.464 320.812 202.824C320.812 206.184 323.906 208.906 330.024 210.905C334.96 212.465 340.104 213.268 345.28 213.285H346.04C350.728 213.207 355.371 212.357 359.782 210.768C358.191 215.181 357.331 219.823 357.236 224.513C357.084 232.541 359.41 243.746 363.438 247.851C363.957 248.46 364.602 248.95 365.329 249.285C366.055 249.621 366.845 249.795 367.646 249.795C368.446 249.795 369.236 249.621 369.963 249.285C370.689 248.95 371.334 248.46 371.853 247.851C375.881 243.754 378.23 232.556 378.093 224.528C378.013 219.837 377.16 215.19 375.57 210.776C379.983 212.372 384.628 213.233 389.32 213.323H390.08C395.257 213.315 400.403 212.523 405.343 210.974C411.424 208.982 414.57 206.276 414.57 202.908C414.57 199.54 411.477 196.826 405.358 194.827ZM360.755 181.143C360.588 171.147 364.221 159.44 367.703 159.447C371.184 159.455 374.802 171.162 374.612 181.159C374.494 186.597 373.26 191.953 370.986 196.895C370.181 197.29 369.413 197.693 368.706 198.104L367.687 196.583L366.661 198.104C365.901 197.701 365.141 197.29 364.381 196.895C362.115 191.946 360.889 186.585 360.778 181.143H360.755ZM345.956 209.765H345.196C335.368 209.765 324.225 206.207 324.225 202.809C324.225 199.411 335.383 195.884 345.211 195.891H345.971C351.414 196.01 356.774 197.244 361.721 199.518C362.116 200.323 362.526 201.091 362.929 201.798L361.409 202.824L362.929 203.851C362.519 204.573 362.116 205.333 361.721 206.131C356.77 208.408 351.404 209.645 345.956 209.765ZM374.566 224.574C374.741 234.57 371.1 246.278 367.619 246.27C364.138 246.262 360.527 234.555 360.717 224.559C360.833 219.115 362.067 213.753 364.343 208.807C365.149 208.412 365.909 208.009 366.623 207.598L367.649 209.119L368.676 207.598C369.436 208.001 370.196 208.412 370.956 208.807C373.23 213.759 374.459 219.126 374.566 224.574ZM390.088 209.818H389.327C383.885 209.704 378.525 208.472 373.578 206.2C373.183 205.394 372.818 204.626 372.377 203.919L373.897 202.893L372.377 201.867C372.788 201.144 373.191 200.384 373.586 199.586C378.535 197.318 383.899 196.094 389.343 195.99H390.103C399.931 195.99 411.082 199.548 411.082 202.946C411.082 206.344 399.908 209.818 390.088 209.818Z" fill="#282828"/>
<path d="M365.924 202.602C367.455 194.66 371.248 187.329 376.846 181.491C382.927 175.227 391.927 169.944 396.563 169.944C397.121 169.895 397.684 169.97 398.209 170.164C398.735 170.358 399.212 170.665 399.605 171.065C399.998 171.465 400.298 171.946 400.483 172.475C400.668 173.004 400.734 173.568 400.675 174.125C400.63 178.77 395.355 187.771 389.099 193.769C383.248 199.354 375.912 203.133 367.968 204.655L365.422 205.149L365.924 202.602Z" fill="#FD7D32"/>
<path d="M338.694 236.111C338.139 236.144 337.584 236.064 337.061 235.876C336.539 235.688 336.06 235.395 335.653 235.017C335.271 234.602 334.977 234.114 334.789 233.582C334.6 233.05 334.522 232.485 334.559 231.922C334.612 227.278 339.879 218.284 346.143 212.286C351.991 206.699 359.329 202.919 367.274 201.4L369.82 200.906L369.318 203.453C367.785 211.395 363.993 218.725 358.396 224.564C352.315 230.828 343.315 236.111 338.633 236.111" fill="#01B2E0"/>
<path d="M396.495 236.172C391.858 236.172 382.813 230.851 376.801 224.587C371.208 218.741 367.427 211.401 365.916 203.453L365.422 200.906L367.961 201.408C375.919 202.94 383.264 206.745 389.107 212.363C395.324 218.368 400.607 227.376 400.645 232.021C400.702 232.579 400.635 233.142 400.449 233.671C400.263 234.2 399.962 234.681 399.569 235.079C399.175 235.478 398.698 235.785 398.172 235.978C397.646 236.171 397.083 236.245 396.525 236.195" fill="#701487"/>
<path d="M367.285 204.709C359.341 203.179 352.01 199.382 346.177 193.777C339.951 187.771 334.669 178.763 334.631 174.118C334.574 173.561 334.64 172.997 334.826 172.469C335.012 171.94 335.313 171.459 335.707 171.06C336.101 170.661 336.578 170.354 337.104 170.162C337.63 169.969 338.192 169.895 338.75 169.945C343.387 169.945 352.432 175.266 358.445 181.522C364.037 187.371 367.817 194.714 369.329 202.664L369.823 205.203L367.285 204.709Z" fill="#ABC704"/>
<path d="M378.787 202.97C383.041 200.977 386.939 198.299 390.325 195.042C396.11 189.477 402.381 179.914 402.441 174.166C402.505 173.377 402.399 172.584 402.128 171.84C401.858 171.096 401.431 170.418 400.875 169.854C400.32 169.29 399.65 168.852 398.91 168.571C398.17 168.289 397.378 168.17 396.589 168.222C390.842 168.222 381.227 174.486 375.61 180.294C372.347 183.674 369.661 187.568 367.659 191.818C365.673 187.559 362.997 183.658 359.739 180.271C354.129 174.448 344.537 168.161 338.783 168.153C337.993 168.102 337.202 168.221 336.462 168.502C335.722 168.783 335.051 169.22 334.495 169.783C333.938 170.346 333.509 171.022 333.237 171.765C332.964 172.508 332.855 173.301 332.915 174.09C332.961 179.838 339.224 189.416 344.993 194.988C348.372 198.253 352.265 200.94 356.516 202.94C352.261 204.931 348.362 207.61 344.978 210.869C339.193 216.434 332.915 225.997 332.862 231.744C332.798 232.533 332.905 233.327 333.175 234.071C333.445 234.815 333.872 235.492 334.428 236.056C334.983 236.62 335.654 237.058 336.393 237.34C337.133 237.622 337.925 237.741 338.715 237.689C344.461 237.689 354.076 231.425 359.693 225.609C362.946 222.235 365.62 218.346 367.606 214.1C369.599 218.352 372.277 222.248 375.534 225.632C381.143 231.463 390.736 237.75 396.49 237.757C397.279 237.807 398.07 237.688 398.81 237.406C399.549 237.124 400.219 236.687 400.775 236.125C401.331 235.562 401.76 234.887 402.033 234.144C402.306 233.402 402.417 232.609 402.358 231.82C402.305 226.073 396.049 216.494 390.28 210.922C386.912 207.658 383.029 204.971 378.787 202.97ZM378.118 182.719C383.948 176.69 392.522 171.703 396.581 171.711C397.232 171.658 397.877 171.866 398.375 172.289C400.83 174.752 395.106 185.592 387.908 192.525C383.974 196.3 379.303 199.222 374.188 201.108C373.345 200.819 372.516 200.561 371.718 200.348L372.068 198.554L370.274 198.903C370.053 198.105 369.803 197.277 369.514 196.433C371.409 191.319 374.338 186.65 378.118 182.719ZM347.418 192.487C340.227 185.539 334.496 174.691 336.989 172.228C337.487 171.805 338.132 171.597 338.783 171.65C342.842 171.65 351.408 176.66 357.223 182.704C360.989 186.63 363.91 191.287 365.805 196.387C365.516 197.239 365.257 198.067 365.044 198.858L363.243 198.508L363.593 200.302C362.833 200.523 361.974 200.781 361.122 201.062C356.015 199.174 351.35 196.255 347.418 192.487ZM357.185 223.199C351.355 229.228 342.781 234.245 338.722 234.245C338.071 234.298 337.426 234.09 336.928 233.667C334.466 231.197 340.197 220.356 347.395 213.431C351.329 209.656 356 206.734 361.115 204.848C361.958 205.137 362.787 205.388 363.585 205.608L363.228 207.402L365.029 207.053C365.25 207.851 365.5 208.672 365.789 209.523C363.887 214.623 360.958 219.277 357.185 223.199ZM398.314 233.69C398.062 233.899 397.771 234.056 397.458 234.151C397.145 234.247 396.815 234.279 396.49 234.245C392.431 234.245 383.865 229.235 378.05 223.192C374.284 219.266 371.363 214.608 369.468 209.508C369.757 208.657 370.015 207.828 370.228 207.038L372.022 207.387L371.672 205.593C372.471 205.373 373.299 205.114 374.15 204.833C379.252 206.738 383.909 209.669 387.832 213.446C395.076 220.379 400.777 231.204 398.314 233.69Z" fill="#282828"/>
<path d="M367.586 214.901C365.262 214.898 362.991 214.206 361.061 212.913C359.13 211.619 357.626 209.782 356.739 207.634C355.852 205.486 355.622 203.123 356.078 200.844C356.534 198.565 357.655 196.472 359.3 194.83C360.945 193.188 363.039 192.071 365.319 191.62C367.598 191.168 369.961 191.403 372.107 192.294C374.253 193.185 376.087 194.693 377.376 196.626C378.666 198.56 379.354 200.832 379.352 203.156C379.346 206.273 378.104 209.261 375.898 211.463C373.692 213.665 370.702 214.901 367.586 214.901Z" fill="#FFDE0D"/>
<path d="M367.673 192.947C369.651 192.949 371.585 193.537 373.229 194.638C374.874 195.739 376.155 197.303 376.91 199.132C377.666 200.961 377.862 202.973 377.474 204.913C377.086 206.854 376.131 208.636 374.73 210.034C373.329 211.431 371.546 212.382 369.604 212.766C367.663 213.15 365.652 212.949 363.825 212.189C361.998 211.429 360.437 210.145 359.34 208.498C358.243 206.851 357.659 204.915 357.662 202.936C357.666 200.284 358.723 197.742 360.6 195.869C362.477 193.996 365.021 192.945 367.673 192.947ZM367.673 189.443C365.001 189.438 362.387 190.226 360.163 191.708C357.939 193.189 356.204 195.297 355.178 197.764C354.152 200.232 353.881 202.948 354.399 205.57C354.917 208.192 356.201 210.601 358.088 212.493C359.976 214.385 362.381 215.674 365.002 216.198C367.622 216.722 370.339 216.457 372.808 215.436C375.278 214.416 377.389 212.685 378.875 210.464C380.361 208.243 381.155 205.631 381.157 202.959C381.157 199.38 379.737 195.946 377.209 193.412C374.681 190.878 371.252 189.451 367.673 189.443Z" fill="#282828"/>
<path d="M215.919 57.6465L180.346 123.077V57.6465H160.538V149.897H185.386L222.137 81.6689V149.897H241.899V57.6465H215.919Z" fill="white"/>
<path d="M153.323 57.6693V250H133.561V77.465H95.9128V214.575C95.9128 214.811 95.9128 215.062 95.9128 215.335V215.571C95.7684 221.12 94.3166 234.713 83.9716 243.303L83.8956 243.372C80.2547 246.374 74.668 249.309 66.5425 249.856C65.6988 249.902 64.8323 249.94 63.9278 249.94C61.5629 249.901 59.2118 249.571 56.9272 248.959V229.308C57.4137 229.422 57.8774 229.536 58.341 229.619C58.3739 229.622 58.407 229.622 58.4399 229.619C64.3002 230.783 68.6176 230.273 71.2855 228.099C74.3259 225.583 75.5573 220.664 75.945 217.213C75.9479 217.2 75.9479 217.187 75.945 217.175C76.0528 216.279 76.1087 215.378 76.1122 214.476C76.1122 214.377 76.1122 214.286 76.1122 214.203V213.921V213.754L76.2186 75.5188V69.4828L109.663 63.9333L109.899 63.8953C114.781 62.8894 119.359 60.7488 123.261 57.6465H153.323V57.6693Z" fill="white"/>
<path d="M96.8983 0.371237L23.6474 12.5345C16.2492 13.7657 9.64249 17.8846 5.27959 23.9857C0.916688 30.0869 -0.845372 37.6711 0.380737 45.0711C2.93467 60.4196 17.5818 70.918 35.1173 68.3333L108.361 56.1701C119.922 53.8895 129.757 41.8935 129.818 28.3771C129.827 26.7826 129.698 25.1902 129.431 23.6182C128.177 16.2316 124.053 9.64097 117.958 5.28541C111.862 0.929846 104.291 -0.836797 96.8983 0.371237Z" fill="#FFDE0D"/>
<path d="M43.3486 30.2617C42.8585 28.9517 42.0791 27.7693 41.0683 26.8027C39.6414 25.4624 37.8838 24.5257 35.9756 24.0888C33.7885 23.5741 31.5179 23.5223 29.3095 23.9368C27.0932 24.2597 24.9622 25.0166 23.0387 26.1642C21.4364 27.105 20.1424 28.4917 19.3142 30.1552C18.5358 31.8142 18.3043 33.6776 18.6529 35.4766C18.8657 36.9964 19.465 38.4361 20.3936 39.6578C21.3378 40.7864 22.5977 41.6071 24.0116 42.0144C25.8886 42.544 27.8426 42.7471 29.7884 42.6149L35.1623 42.4097C36.1791 42.3504 37.1994 42.4091 38.2027 42.5845C38.8305 42.6845 39.4148 42.9674 39.8826 43.398C40.2908 43.8415 40.5557 44.3979 40.6427 44.9944C40.7988 45.785 40.6348 46.6053 40.1866 47.275C39.6642 48.0393 38.9408 48.6443 38.0963 49.0234C37.003 49.5487 35.8373 49.9074 34.6378 50.0877C33.3597 50.3316 32.0471 50.3316 30.7689 50.0877C29.7087 49.8925 28.7151 49.4322 27.8806 48.7498C27.4302 48.3742 27.0538 47.9179 26.7708 47.4042L20.69 48.8258C21.1668 50.1933 21.9463 51.4355 22.9703 52.4596C24.4458 53.901 26.2847 54.9152 28.291 55.3939C30.6157 55.9387 33.0283 55.9931 35.3751 55.5536C37.6697 55.2142 39.8694 54.4041 41.836 53.1742C43.5059 52.1306 44.847 50.6364 45.7049 48.8638C46.5086 47.1097 46.7476 45.1493 46.389 43.2535C46.1985 41.7701 45.6276 40.3612 44.732 39.1636C43.8141 38.1058 42.5847 37.366 41.2203 37.0503C39.2519 36.5877 37.2258 36.4186 35.2079 36.5485L29.6212 36.6854C28.6893 36.732 27.7552 36.6656 26.8392 36.4877C26.2515 36.3873 25.7037 36.1239 25.2582 35.7275C24.8857 35.3168 24.6471 34.8024 24.5741 34.2527C24.4296 33.5129 24.5737 32.7458 24.977 32.1089C25.4578 31.393 26.1255 30.8225 26.9076 30.4593C27.9137 29.9622 28.9906 29.6238 30.1001 29.4558C31.2847 29.2351 32.4987 29.2222 33.6877 29.4178C34.6507 29.5635 35.5595 29.9564 36.3253 30.5581C36.9066 31.0206 37.3508 31.6331 37.6098 32.3294L43.3486 30.2617Z" fill="#282828"/>
<path d="M75.1369 23.4019L74.1107 17.3203L47.416 21.8131L48.4498 27.8947L58.8251 26.1463L62.9373 50.5336L68.8585 49.5377L64.7539 25.1504L75.1369 23.4019Z" fill="#282828"/>
<path d="M110.418 27.1835C109.995 24.2943 108.859 21.5562 107.112 19.2166C105.501 17.0852 103.311 15.4623 100.803 14.5414C98.1258 13.6491 95.2706 13.4272 92.4877 13.895C89.7049 14.3629 87.0792 15.5062 84.8408 17.2249C82.7671 18.9117 81.2276 21.1644 80.4094 23.7094C79.5856 26.5086 79.4107 29.4588 79.8981 32.3357C80.3854 35.2127 81.5221 37.9406 83.2218 40.3122C84.8282 42.4483 87.0197 44.0723 89.5306 44.9875C92.2071 45.8851 95.0633 46.1098 97.8472 45.6418C100.631 45.1738 103.257 44.0274 105.493 42.3039C107.566 40.6155 109.108 38.3636 109.932 35.8194C110.812 33.0266 110.979 30.0576 110.418 27.1835ZM104.17 33.5388C103.696 35.0771 102.769 36.4364 101.51 37.4387C100.12 38.4738 98.5042 39.1638 96.7955 39.4519C95.0868 39.7401 93.3341 39.618 91.6817 39.0959C90.1621 38.5558 88.8386 37.5736 87.8812 36.2755C86.8636 34.7852 86.1816 33.0916 85.8823 31.3118C85.5831 29.532 85.6738 27.7085 86.1482 25.9672C86.6275 24.4336 87.5507 23.0764 88.801 22.0674C90.1956 21.036 91.8139 20.3483 93.5243 20.0604C95.2347 19.7724 96.9889 19.8922 98.6443 20.4101C100.166 20.9469 101.49 21.9297 102.445 23.2305C103.458 24.723 104.137 26.4165 104.436 28.1955C104.735 29.9745 104.647 31.797 104.178 33.5388H104.17Z" fill="#282828"/>
</svg>
