<svg width="30" height="30" viewBox="0 0 30 30" fill="none" xmlns="http://www.w3.org/2000/svg">
<path d="M12.4902 22.6048C13.1176 23.3683 13.9961 23.75 15 23.75C16.0039 23.75 16.8824 23.3683 17.5098 22.6048L24.4118 14.2066C25.0392 13.4431 25.1647 12.2979 24.7882 11.4072C24.4118 10.5165 23.5333 9.88024 22.5294 9.88024H19.6431V5.42665C19.6431 3.77245 18.3882 2.5 16.7569 2.5H13.3686C11.7373 2.5 10.3569 3.77245 10.3569 5.42665V9.88024H7.47059C6.46667 10.0075 5.58824 10.5165 5.21176 11.4072C4.83529 12.2979 4.96078 13.4431 5.58824 14.2066L12.4902 22.6048Z" fill="#282828"/>
<path d="M26.1318 18.875C25.3856 18.875 24.8881 19.375 24.8881 20.125V23.25C24.8881 24.25 24.0174 25.125 23.0224 25.125H6.85323C5.85821 25 4.98756 24.125 4.98756 23.125V20C4.98756 19.25 4.49005 18.75 3.74378 18.75C2.99751 18.75 2.5 19.25 2.5 20V23.125C2.5 25.625 4.36567 27.5 6.85323 27.5H23.1468C25.51 27.5 27.5 25.625 27.5 23.125V20C27.3756 19.375 26.8781 18.875 26.1318 18.875Z" fill="#282828"/>
</svg>
