<svg width="130" height="130" viewBox="0 0 130 130" fill="none" xmlns="http://www.w3.org/2000/svg">
<circle cx="65" cy="65" r="65" fill="#FCF0FF"/>
<path d="M96.3129 85.5612C92.7712 77.0612 86.0421 70.6862 77.8962 67.4987C82.5004 63.957 85.3337 58.2904 85.3337 52.2695C85.3337 40.9362 76.4796 32.082 65.5004 32.082C54.5212 32.082 45.6671 40.9362 45.6671 51.9154C45.6671 57.9362 48.5004 63.6029 53.1046 67.1445C44.9587 70.332 38.2296 76.707 34.6879 85.207C33.2712 88.7487 33.6254 92.9987 35.7504 96.1862C37.8754 99.7279 41.7712 101.499 46.0212 101.499H85.3337C89.5837 101.499 93.1254 99.3737 95.6046 96.1862C97.7296 92.9987 98.0837 89.1029 96.3129 85.5612Z" fill="#701487"/>
<circle cx="108.5" cy="19.5" r="18.5" fill="#701487"/>
<path d="M108.5 22.8346C110.341 22.8346 111.833 21.3423 111.833 19.5013C111.833 17.6604 110.341 16.168 108.5 16.168C106.659 16.168 105.167 17.6604 105.167 19.5013C105.167 21.3423 106.659 22.8346 108.5 22.8346Z" fill="white"/>
<path d="M105.375 9.08179L103.469 11.1651H100.167C99.0208 11.1651 98.0833 12.1026 98.0833 13.2485V25.7485C98.0833 26.8943 99.0208 27.8318 100.167 27.8318H116.833C117.979 27.8318 118.917 26.8943 118.917 25.7485V13.2485C118.917 12.1026 117.979 11.1651 116.833 11.1651H113.531L111.625 9.08179H105.375ZM108.5 24.7068C105.625 24.7068 103.292 22.3735 103.292 19.4985C103.292 16.6235 105.625 14.2901 108.5 14.2901C111.375 14.2901 113.708 16.6235 113.708 19.4985C113.708 22.3735 111.375 24.7068 108.5 24.7068Z" fill="white"/>
</svg>
